<?xml version="1.0" encoding="utf-8"?>
<!-- Generator: Adobe Illustrator 25.2.3, SVG Export Plug-In . SVG Version: 6.00 Build 0)  -->
<svg version="1.1" id="Layer_1" xmlns="http://www.w3.org/2000/svg" xmlns:xlink="http://www.w3.org/1999/xlink" x="0px" y="0px"
	 viewBox="0 0 175 175" style="enable-background:new 0 0 175 175;" xml:space="preserve">
<style type="text/css">
	.st0{fill:#0065B7;}
	.st1{clip-path:url(#SVGID_2_);}
	.st2{fill:#FFFFFF;}
	.st3{font-family:'Courier-Bold';}
	.st4{font-size:24px;}
	.st5{fill:none;stroke:#000000;stroke-miterlimit:10;}
	.st6{clip-path:url(#SVGID_4_);}
	.st7{fill:#FFFFFF;stroke:#000000;stroke-width:0.75;stroke-miterlimit:10;}
	.st8{clip-path:url(#SVGID_4_);fill:#FFFFFF;stroke:#000000;stroke-width:0.75;stroke-miterlimit:10;}
	.st9{fill:#FFFFFF;stroke:#000000;stroke-miterlimit:10;}
	.st10{fill:#FFFFFF;stroke:#000000;stroke-width:0.5;stroke-miterlimit:10;}
</style>
<polygon class="st0" points="87.46,25.1 44.16,0.1 0.86,25.1 0.86,75.1 44.16,100.1 87.46,75.1 "/>
<polygon class="st0" points="174.14,25.1 130.84,0.1 87.54,25.1 87.54,75.1 130.84,100.1 174.14,75.1 "/>
<polygon class="st0" points="130.74,99.9 87.43,74.9 44.13,99.9 44.13,149.9 87.43,174.9 130.74,149.9 "/>
<g>
	<defs>
		<polygon id="SVGID_1_" points="87.46,25.1 44.16,0.1 0.86,25.1 0.86,75.1 44.16,100.1 87.46,75.1 		"/>
	</defs>
	<clipPath id="SVGID_2_">
		<use xlink:href="#SVGID_1_"  style="overflow:visible;"/>
	</clipPath>
	<g class="st1">
		<text transform="matrix(1 0 0 1 0.95 25.9375)"><tspan x="0" y="0" class="st2 st3 st4">101011</tspan><tspan x="0" y="28.8" class="st2 st3 st4">001101</tspan><tspan x="0" y="57.6" class="st2 st3 st4">110100</tspan></text>
	</g>
</g>
<polygon class="st5" points="87.46,25.1 44.16,0.1 0.86,25.1 0.86,75.1 44.16,100.1 87.46,75.1 "/>
<g>
	<defs>
		<polygon id="SVGID_3_" points="174.14,25.1 130.84,0.1 87.54,25.1 87.54,75.1 130.84,100.1 174.14,75.1 		"/>
	</defs>
	<clipPath id="SVGID_4_">
		<use xlink:href="#SVGID_3_"  style="overflow:visible;"/>
	</clipPath>
	<g class="st6">
		<path class="st7" d="M128.12,52.45c-0.62-3.69-0.99-7.26-0.65-10.49c0.78-7.42,4.28-10.71,4.14-10.81
			c-0.14-0.1-4.78,3.47-6.93,11.24c0,0-1.18,5.5-0.38,12.48c0.48,4.2,0.78,4.95,1.77,11.75c0.95,6.5,0.73,7.76,0.59,8.99
			c-0.51,4.37-1.99,7.31-1.66,7.53c0.34,0.23,1.82-2.72,3.33-6.11c0.28-0.64,1.18-2.71,1.67-6.6c0.13-1.04,0.37-2.52-0.17-6.71
			C129.21,58.82,128.84,56.73,128.12,52.45z"/>
		<path class="st7" d="M164.39,2.51c-0.62-3.69-0.99-7.26-0.65-10.49c0.78-7.42,4.28-10.71,4.14-10.81
			c-0.14-0.1-4.78,3.47-6.93,11.24c0,0-1.18,5.5-0.38,12.48c0.48,4.2,0.78,4.95,1.77,11.75c0.95,6.5,0.73,7.76,0.59,8.99
			c-0.51,4.37-1.99,7.31-1.66,7.53c0.34,0.23,1.82-2.72,3.33-6.11c0.28-0.64,1.18-2.71,1.67-6.6c0.13-1.04,0.37-2.52-0.17-6.71
			C165.49,8.88,165.11,6.79,164.39,2.51z"/>
		<g>
			<path class="st7" d="M112.2,74.36c-0.62-3.69-0.99-7.26-0.65-10.49c0.78-7.42,4.28-10.71,4.14-10.81
				c-0.14-0.1-4.78,3.47-6.93,11.24c0,0-1.18,5.5-0.38,12.48c0.48,4.2,0.78,4.95,1.77,11.75c0.95,6.5,0.73,7.76,0.59,8.99
				c-0.51,4.37-1.99,7.31-1.66,7.53c0.34,0.23,1.82-2.72,3.33-6.11c0.28-0.64,1.18-2.71,1.67-6.6c0.13-1.04,0.37-2.52-0.17-6.71
				C113.3,80.73,112.92,78.64,112.2,74.36z"/>
			<path class="st7" d="M133.31,45.3c-3.7,0.55-7.21,1.31-10.17,2.63c-6.81,3.04-8.87,7.38-9,7.28c-0.14-0.1,1.82-5.62,8.55-10.07
				c0,0,4.86-2.82,11.75-4.22c4.15-0.84,4.95-0.79,11.72-1.95c6.47-1.11,7.61-1.71,8.73-2.22c4-1.84,6.34-4.16,6.65-3.91
				c0.32,0.26-2.02,2.57-4.78,5.05c-0.52,0.47-2.21,1.96-5.76,3.63c-0.94,0.44-2.28,1.13-6.44,1.92
				C139.71,44.37,137.6,44.66,133.31,45.3z"/>
		</g>
		<path class="st7" d="M149.23,23.39c-3.7,0.55-7.21,1.31-10.17,2.63c-6.81,3.04-8.87,7.38-9,7.28c-0.14-0.1,1.82-5.62,8.55-10.07
			c0,0,4.86-2.82,11.75-4.22c4.15-0.84,4.95-0.79,11.72-1.95c6.47-1.11,7.61-1.71,8.73-2.22c4-1.84,6.34-4.16,6.65-3.91
			c0.32,0.26-2.02,2.57-4.78,5.05c-0.52,0.47-2.21,1.96-5.76,3.63c-0.94,0.44-2.28,1.13-6.44,1.92
			C155.62,22.46,153.52,22.75,149.23,23.39z"/>
		<path class="st7" d="M96.78,95.59c-3.7,0.55-7.21,1.31-10.17,2.63c-6.81,3.04-8.87,7.38-9,7.28c-0.14-0.1,1.82-5.62,8.55-10.07
			c0,0,4.86-2.82,11.75-4.22c4.15-0.84,4.95-0.79,11.72-1.95c6.47-1.11,7.61-1.71,8.73-2.22c4-1.84,6.34-4.16,6.65-3.91
			c0.32,0.26-2.02,2.57-4.78,5.05c-0.52,0.47-2.21,1.96-5.76,3.63c-0.94,0.44-2.28,1.13-6.44,1.92
			C103.18,94.66,101.08,94.95,96.78,95.59z"/>
	</g>
	<path class="st8" d="M124.18,79.43l0.13-0.54c0.14-0.59-0.23-1.19-0.82-1.33l-6.85-1.64c-0.59-0.14-1.19,0.23-1.33,0.82l-0.13,0.54
		c-0.14,0.59,0.23,1.19,0.82,1.33l6.85,1.64C123.44,80.39,124.04,80.02,124.18,79.43z"/>
	<path class="st8" d="M123.39,71.53l0.13-0.54c0.14-0.59-0.23-1.19-0.82-1.33l-6.85-1.64c-0.59-0.14-1.19,0.23-1.33,0.82l-0.13,0.54
		c-0.14,0.59,0.23,1.19,0.82,1.33l6.85,1.64C122.66,72.49,123.25,72.12,123.39,71.53z"/>
	<path class="st8" d="M122.55,63.59l0.13-0.54c0.14-0.59-0.23-1.19-0.82-1.33l-6.85-1.64c-0.59-0.14-1.19,0.23-1.33,0.82l-0.13,0.54
		c-0.14,0.59,0.23,1.19,0.82,1.33l6.85,1.64C121.81,64.55,122.4,64.18,122.55,63.59z"/>
	<path class="st8" d="M156.44,33.78l-0.47,0.29c-0.52,0.32-1.2,0.15-1.52-0.36l-3.67-6c-0.32-0.52-0.15-1.2,0.36-1.52l0.47-0.29
		c0.52-0.32,1.2-0.15,1.52,0.36l3.67,6C157.12,32.78,156.96,33.46,156.44,33.78z"/>
	<path class="st8" d="M148.69,35.47l-0.47,0.29c-0.52,0.32-1.2,0.15-1.51-0.36l-3.67-6c-0.32-0.52-0.15-1.2,0.36-1.52l0.47-0.29
		c0.52-0.32,1.2-0.15,1.52,0.36l3.67,6C149.37,34.47,149.21,35.15,148.69,35.47z"/>
	<path class="st8" d="M140.88,37.12l-0.47,0.29c-0.52,0.32-1.2,0.15-1.51-0.36l-3.67-6c-0.32-0.52-0.15-1.2,0.36-1.52l0.47-0.29
		c0.52-0.32,1.2-0.15,1.52,0.36l3.67,6C141.56,36.12,141.39,36.8,140.88,37.12z"/>
</g>
<polygon class="st5" points="174.14,25.1 130.84,0.1 87.54,25.1 87.54,75.1 130.84,100.1 174.14,75.1 "/>
<g>
	<circle class="st9" cx="87.43" cy="135.85" r="8.13"/>
	<circle class="st9" cx="87.43" cy="111.3" r="4.94"/>
	<circle class="st9" cx="65.17" cy="151" r="2.62"/>
	<circle class="st9" cx="109.7" cy="151" r="2.62"/>
	<line class="st9" x1="69.3" y1="148.38" x2="78.8" y2="141.44"/>
	<line class="st9" x1="105.57" y1="148.38" x2="96.07" y2="141.44"/>
	<line class="st9" x1="85.43" y1="118.47" x2="85.43" y2="125.18"/>
	<line class="st9" x1="89.44" y1="118.47" x2="89.44" y2="125.18"/>
</g>
<g>
	<circle class="st10" cx="115.78" cy="108.41" r="2.85"/>
	<circle class="st10" cx="115.78" cy="99.82" r="1.73"/>
	<circle class="st10" cx="107.99" cy="113.71" r="0.92"/>
	<circle class="st10" cx="123.58" cy="113.71" r="0.92"/>
	<line class="st10" x1="109.44" y1="112.8" x2="112.76" y2="110.37"/>
	<line class="st10" x1="122.13" y1="112.8" x2="118.81" y2="110.37"/>
	<line class="st10" x1="115.08" y1="102.33" x2="115.08" y2="104.68"/>
	<line class="st10" x1="116.49" y1="102.33" x2="116.49" y2="104.68"/>
</g>
<g>
	<circle class="st10" cx="61.04" cy="108.41" r="2.85"/>
	<circle class="st10" cx="61.04" cy="99.82" r="1.73"/>
	<circle class="st10" cx="53.25" cy="113.71" r="0.92"/>
	<circle class="st10" cx="68.84" cy="113.71" r="0.92"/>
	<line class="st10" x1="54.7" y1="112.8" x2="58.02" y2="110.37"/>
	<line class="st10" x1="67.39" y1="112.8" x2="64.06" y2="110.37"/>
	<line class="st10" x1="60.34" y1="102.33" x2="60.34" y2="104.68"/>
	<line class="st10" x1="61.75" y1="102.33" x2="61.75" y2="104.68"/>
</g>
<polygon class="st5" points="130.74,99.9 87.43,74.9 44.13,99.9 44.13,149.9 87.43,174.9 130.74,149.9 "/>
</svg>
