<svg id="Layer_1" data-name="Layer 1" xmlns="http://www.w3.org/2000/svg" viewBox="0 0 64.44 65.31">
  <defs>
    <style>
      .cls-1 {
        fill: #fff;
      }

      .cls-2 {
        fill: #b32025;
      }
    </style>
  </defs>
  <title>brand</title>
  <g>
    <g>
      <path class="cls-1" d="M29.76,33.34l-1.28.13c-0.73.08-1.36,0.14-1.93,0.16l-1.69,0c0,1.24,0,10,0,11.17H26c1,0,1.76-.09,2.45-0.15s1.39-.13,2.3-0.12a2.06,2.06,0,0,1,.79.15V33.51a1.4,1.4,0,0,0-.32-0.12A5.27,5.27,0,0,0,29.76,33.34ZM28.12,35c0.28,0,.62,0,1-0.08l0.62-.07,0.41,0v0.79H29.82l-0.62.06c-0.41,0-.76.08-1.07,0.09l-1.9.05,0-.79Zm2,7.87H29.82L29.21,43c-0.41,0-.76.08-1.07,0.09H27.87l-1.64,0V42.33l1.63,0h0.27c0.28,0,.62,0,1-0.08l0.62-.06,0.41,0Zm0-2.41H29.82l-0.66.07c-0.39,0-.73.08-1,0.08h-0.2l-1.7,0V39.92l1.69,0h0.21c0.27,0,.59,0,1-0.08l0.66-.07h0.41Zm0-2.42H29.82l-0.62.07c-0.4,0-.75.08-1.07,0.09l-1.89.05,0-.79,1.9,0c0.28,0,.62,0,1-0.09l0.64-.07h0.4Z"/>
      <path class="cls-1" d="M7.33,18.69c-0.46-.25-0.72.16-0.93,0.54l-0.13.25L7.3,20l0.14-.25C7.63,19.4,7.81,18.94,7.33,18.69Z"/>
      <path class="cls-1" d="M18.33,36.58c0,8.86,10,14.63,13.2,16.25v-6.2a1.89,1.89,0,0,1-.31-0.31A0.51,0.51,0,0,0,30.74,46a20.81,20.81,0,0,0-2.16.12c-0.68.06-1.45,0.13-2.55,0.16s-1.93,0-2,0l-0.71,0V43.84H21.88V42h1.48V40.12H21.88v-1.8h1.48V36H21.88v-1.8h1.48v-2h3.17c0.51,0,1.11-.08,1.81-0.15l1.28-.13a6.56,6.56,0,0,1,1.92.08V30H18.33C18.33,33.62,18.33,36.58,18.33,36.58Z"/>
      <path class="cls-1" d="M39.35,21.77l-3,2.14h0c0,0.08,0,.13,0,0.16h0a1.5,1.5,0,0,0,.74.78c0.72,0.48,1.72,1.09,2.25,1.4,0.56-.31,1.62-0.92,2.35-1.4a1.44,1.44,0,0,0,.66-0.73V24.06h0s0-.13,0-0.28Z"/>
      <polygon class="cls-1" points="37.43 57.94 37.2 59.82 38.43 59.55 37.45 57.94 37.43 57.94"/>
      <path class="cls-1" d="M22.47,22.48c0,0.87,0,1.53,0,1.62a1.49,1.49,0,0,0,.73.78c0.72,0.48,1.72,1.09,2.25,1.4,0.56-.31,1.62-0.92,2.35-1.4a1.45,1.45,0,0,0,.66-0.73V24.09h0c0-.09,0-0.63,0-1.36V22.48h-6Z"/>
      <path class="cls-1" d="M28.47,19.66h-6V21h6C28.47,20.53,28.47,20.09,28.47,19.66Z"/>
      <path class="cls-1" d="M7.1,43.28a1.33,1.33,0,0,0-.88,1.78,1.33,1.33,0,0,0,1.95.4A1.33,1.33,0,0,0,9,43.69,1.34,1.34,0,0,0,7.1,43.28Z"/>
      <path class="cls-1" d="M30.15,58.26l-0.48,0-0.17,3,0.48,0A1.49,1.49,0,0,0,30.15,58.26Z"/>
      <path class="cls-1" d="M5.36,26.16a1.33,1.33,0,0,0,1.84-.73A1.33,1.33,0,0,0,6,23.85a1.34,1.34,0,0,0-1.82.73A1.33,1.33,0,0,0,5.36,26.16Z"/>
      <path class="cls-1" d="M20.35,55.48l-0.43-.22-1.34,2.66L19,58.14A1.49,1.49,0,0,0,20.35,55.48Z"/>
      <path class="cls-1" d="M43.91,55.41l-0.43.23,1.42,2.61L45.32,58A1.49,1.49,0,0,0,43.91,55.41Z"/>
      <path class="cls-1" d="M57.65,44.22a0.68,0.68,0,0,0-1,.17,0.68,0.68,0,0,0,.48.89,0.65,0.65,0,0,0,1-.2A0.66,0.66,0,0,0,57.65,44.22Z"/>
      <path class="cls-1" d="M36.38,19.63c0,0.56,0,1.15,0,1.72v0.71l2.51-1.81,0.42-.31,3.07,2c0-.74,0-1.58,0-2.35h-6Z"/>
      <path class="cls-1" d="M53.79,14c0.39-.34.11-0.73-0.17-1.05l-0.19-.21-0.88.77,0.19,0.21C53,14,53.38,14.35,53.79,14Z"/>
      <path class="cls-1" d="M32.22,1.51A30.71,30.71,0,1,0,62.93,32.22,30.75,30.75,0,0,0,32.22,1.51Zm29.4,28.35L59.86,31l1.88,0.93,0,0.91-2.7-1.39-1.71.09,0-.86,1.71-.1,2.53-1.71Zm-1.18-6.24,0.79,3.22L60.57,27,60.28,25.8l-3.55.88-0.2-.83L60.08,25l-0.29-1.19Zm-0.79-2.15-4,1.64-0.32-.8,4-1.64Zm-3.86-4.82a1.32,1.32,0,0,1,1.9.61,3.25,3.25,0,0,1,.39,1l-0.66.3a2.22,2.22,0,0,0-.28-0.84,0.6,0.6,0,0,0-.86-0.28c-0.65.38,0.58,1.84-.67,2.58a1.36,1.36,0,0,1-1.95-.71,3.75,3.75,0,0,1-.42-1L54,17.9a2.06,2.06,0,0,0,.26,1,0.68,0.68,0,0,0,.87.37C55.81,18.82,54.56,17.38,55.79,16.65ZM54,12.33c0.61,0.69,1.35,1.5.45,2.3a1,1,0,0,1-1.34,0h0a0.63,0.63,0,0,1,0,.64L52.23,16.9l-0.63-.72,0.68-1.28a0.53,0.53,0,0,0-.06-0.74L52,14l-1.36,1.19-0.57-.65,3.26-2.86ZM51.37,9.76L51,10.29l-1.31-1L49,10.11l1.2,0.94-0.42.54-1.2-.94-0.75,1,1.32,1-0.42.54-2-1.57L49.38,8.2ZM43.76,5l0.82,0.42L44,8.95h0L46.54,6.4,47.3,6.79,44.05,10l-0.94-.47ZM40.71,4l0.82,0.26-1.3,4.14-0.82-.26ZM34.56,2.79l1,0.14,1.18,3.43h0l0.43-3.22L38,3.26l-0.58,4.3-1-.14L35.24,4h0L34.79,7.2,34,7.09ZM29,2.94l0.2,2.5c0.06,0.74.34,1.2,1,1.15S31,6,31,5.29l-0.21-2.5,0.86-.07,0.23,2.76a1.5,1.5,0,0,1-1.6,1.78,1.5,1.5,0,0,1-1.88-1.49L28.12,3ZM22,4.6L23.26,8l1.56-.56,0.23,0.64L22.68,9,21.21,4.9ZM17.55,6.68l1.79,3.18,1.45-.81,0.33,0.6-2.2,1.24L16.8,7.11Zm-3,2,0.43,0.53-1.29,1.05,0.68,0.83,1.18-1,0.43,0.53-1.19,1,0.77,0.94,1.3-1.06L17.25,12l-2,1.6-2.74-3.37Zm-5.63,5.5L12.41,15h0l-2.5-2.07,0.52-.63L13.78,15l-0.67.81L9.57,15h0l2.5,2.08-0.53.63L8.2,14.95Zm-3.17,5c0.43-.81.92-1.8,2-1.23a1,1,0,0,1,.47,1.25h0a0.64,0.64,0,0,1,.61-0.19l1.82,0.19L10.15,20l-1.44-.18A0.53,0.53,0,0,0,8,20.1l-0.13.25L9.5,21.19l-0.4.76-3.83-2Zm-2.16,5.3A2,2,0,0,1,6.26,23a2.1,2.1,0,1,1-1.15,4A2,2,0,0,1,3.54,24.39Zm-1,5.43a2.82,2.82,0,0,1,.24-1L3.49,29a1.73,1.73,0,0,0-.29.91,1.44,1.44,0,0,0,1.48,1.53,1.42,1.42,0,0,0,1.64-1.35,2.37,2.37,0,0,0-.12-0.95H6.93a4.25,4.25,0,0,1,.08,1,2.07,2.07,0,0,1-2.31,2.21A2.14,2.14,0,0,1,2.52,29.82Zm0.91,9.44,4.17-1.2,0.67,2.31-0.66.19L7.19,39.08l-1,.3,0.4,1.4L5.91,41,5.5,39.57l-1.83.53Zm2.18,6.1a2,2,0,0,1,1.09-2.9,2,2,0,0,1,2.93.92,2,2,0,0,1-1.07,2.89A2,2,0,0,1,5.61,45.36Zm3.52,5.57a1.51,1.51,0,0,1,.19-2.41l2.17-1.72L12,47.48l-2,1.56c-0.58.46-.81,0.95-0.4,1.47s0.94,0.41,1.52-.06l2-1.56,0.54,0.68-2.17,1.72A1.51,1.51,0,0,1,9.12,50.93Zm5.1,5L15,52.33h0l-2.05,2.51-0.64-.53L15,51l0.83,0.67-0.78,3.55h0l2.06-2.51L17.8,53.2,15,56.56Zm7.53,2c-0.77,1.54-2,1.41-3.2.81l-1.06-.53,1.95-3.88L20.5,54.8C21.69,55.39,22.53,56.32,21.76,57.86Zm5,0-1.63-.44-0.27,1,1.49,0.4-0.18.66-1.49-.4-0.31,1.18L26,60.69l-0.18.66-2.48-.66,1.12-4.19,2.47,0.66Zm3,4.08-1.18-.07,0.25-4.33L30,57.57c1.32,0.07,2.47.59,2.37,2.31S31.09,62,29.77,61.9Zm9.61-.83-0.57-.9-1.72.37-0.16,1-0.88.19,0.74-4.6,1-.2,2.57,3.88Zm2.2-.69-0.3-.82,0.81-.3,0.3,0.82ZM45.5,58.7l-1,.56-2.07-3.81,1-.56c1.17-.64,2.41-0.8,3.23.71S46.67,58.07,45.5,58.7ZM48.42,57l-0.5-.72,0.71-.5,0.5,0.71Zm-16.2-.55a24.2,24.2,0,1,1,24.2-24.19A24.22,24.22,0,0,1,32.22,56.41Zm20.47-2.94-2.35-2.38-0.1.94-0.71-.1,0.19-1.62,0.55-.54,3,3.09Zm3.22-3.6a1.29,1.29,0,0,1-1.91.48,1.17,1.17,0,0,1-.4-1.28h0a1.11,1.11,0,0,1-1.24,0,1.17,1.17,0,0,1-.1-1.79,1.22,1.22,0,0,1,1.7-.55,1.14,1.14,0,0,1,.41,1.19h0a1.21,1.21,0,0,1,1.41,0A1.26,1.26,0,0,1,55.91,49.88Zm2.76-4.51c-0.54,1.08-1.55.87-2.46,0.41s-2-1.44-1.42-2.69a2.72,2.72,0,0,1,.54-0.75l0.58,0.42a1.81,1.81,0,0,0-.49.6,1.18,1.18,0,0,0,.74,1.52h0a0.94,0.94,0,0,1,0-.94,1.19,1.19,0,0,1,1.75-.54A1.36,1.36,0,0,1,58.67,45.37Zm1.85-4.64a4.66,4.66,0,0,1-.41.93l-0.74-.24a2.17,2.17,0,0,0,.46-0.78,0.81,0.81,0,0,0-.47-1.11,0.83,0.83,0,0,0-1,.74,2.52,2.52,0,0,0-.11.78L56,40.33l0.71-2.38,0.62,0.18-0.47,1.6L57.77,40a2,2,0,0,1,.07-0.39,1.29,1.29,0,0,1,1.75-.93A1.48,1.48,0,0,1,60.53,40.73Z"/>
      <path class="cls-1" d="M52.83,47.59a0.57,0.57,0,0,0,0,.82,0.83,0.83,0,0,0,.93-0.16,0.75,0.75,0,0,0-.22-0.76A0.51,0.51,0,0,0,52.83,47.59Z"/>
      <path class="cls-1" d="M32.22,9.52a22.7,22.7,0,1,0,22.7,22.7A22.73,22.73,0,0,0,32.22,9.52ZM40,50.05a36.93,36.93,0,0,1-7.47,4.63l-0.3.13-0.3-.13A35.47,35.47,0,0,1,24.43,50c-5-4-7.6-8.68-7.6-13.47V15.91H47.58v21C47.59,41.54,45,46.07,40,50.05Z"/>
      <path class="cls-1" d="M46.08,17.42H18.33c0,0.75,0,6.22,0,11.12H46.08C46.08,23.59,46.08,18.15,46.08,17.42ZM30,24.19a2.48,2.48,0,0,1-1.33,1.94c-1.06.71-2.76,1.64-2.83,1.68l-0.37.2-0.37-.21c-0.07,0-1.64-1-2.7-1.67A2.64,2.64,0,0,1,21,24.19c0-.14,0-2.95,0-5.28V18.16h9v0.75C30,24,30,24.16,30,24.19Zm13.91,0a2.47,2.47,0,0,1-1.33,1.94c-1.07.71-2.77,1.64-2.84,1.68l-0.37.2L39,27.76c-0.07,0-1.64-1-2.69-1.67a2.63,2.63,0,0,1-1.4-1.92s0-.17,0-5.29V18.12h9v0.75C43.89,22.27,43.89,24,43.88,24.16Z"/>
      <path class="cls-1" d="M35.94,33.46l-1.3-.13a5.1,5.1,0,0,0-1.41.05,1.23,1.23,0,0,0-.44.18V44.72a2.13,2.13,0,0,1,.89-0.18,23,23,0,0,1,2.3.12c0.69,0.06,1.4.13,2.45,0.15h1.13c0-1.21,0-9.93,0-11.17l-1.69,0C37.29,33.61,36.66,33.54,35.94,33.46Zm2.21,9.68-1.9,0c-0.3,0-.63,0-1-0.08l-0.67-.07H34.23l0-.79,0.43,0,0.68,0.07c0.37,0,.69.07,1,0.08l1.89,0ZM34.2,39.73h0.43l0.68,0.07c0.37,0,.68.07,1,0.08l0.89,0,1,0v0.79l-1,0-0.89,0c-0.3,0-.63,0-1-0.08l-0.67-.07H34.23Zm3.95-1.41-1.9,0c-0.31,0-.65,0-1-0.08l-0.65-.07H34.23l0-.79,0.44,0,0.66,0.07c0.38,0,.7.07,1,0.08l1.89,0Zm0-2.41-1.9-.05c-0.31,0-.65,0-1-0.09l-0.65-.07H34.23l0-.79,0.43,0L35.29,35c0.38,0,.7.08,1,0.08l1.89,0.05V35.9Z"/>
      <path class="cls-1" d="M32.78,30v1.91l0.11,0a6.52,6.52,0,0,1,1.89-.08L36.1,32c0.69,0.07,1.29.14,1.8,0.15h3.16v2.38h1.32v1.79H41.06v2.36h1.41v1.8H41.06V42.4h1.32v1.8H41.06v2.06l-0.71,0s-0.88,0-2,0-1.87-.09-2.55-0.16A20.79,20.79,0,0,0,33.68,46a0.61,0.61,0,0,0-.56.3,2,2,0,0,1-.34.32v6.22c3.06-1.55,13.3-7.37,13.3-15.95,0,0,0-3.14,0-6.91H32.78Z"/>
      <path class="cls-1" d="M54.26,48.79a0.79,0.79,0,0,0,.25.87,0.63,0.63,0,0,0,.88-0.16,0.57,0.57,0,0,0-.1-0.84A0.86,0.86,0,0,0,54.26,48.79Z"/>
    </g>
    <path class="cls-2" d="M32.22,64.44A32.22,32.22,0,1,0,0,32.22,32.25,32.25,0,0,0,32.22,64.44Zm0-62.93A30.71,30.71,0,1,1,1.51,32.22,30.75,30.75,0,0,1,32.22,1.51Z"/>
    <path class="cls-2" d="M8,32.22A24.2,24.2,0,1,0,32.22,8,24.22,24.22,0,0,0,8,32.22Zm24.2-22.7a22.7,22.7,0,1,1-22.7,22.7A22.73,22.73,0,0,1,32.22,9.52Z"/>
    <path class="cls-2" d="M28.14,35.83c0.31,0,.66,0,1.07-0.09l0.62-.06h0.32V34.88l-0.41,0L29.12,35c-0.39,0-.72.08-1,0.08l-1.9,0,0,0.79Z"/>
    <path class="cls-2" d="M29.12,42.2c-0.39,0-.72.08-1,0.08H27.85l-1.63,0v0.79l1.64,0h0.26c0.31,0,.67,0,1.07-0.09l0.61-.06h0.32l0-.79-0.41,0Z"/>
    <path class="cls-2" d="M29.08,39.79c-0.37,0-.69.07-1,0.08H27.91l-1.69,0v0.79l1.7,0h0.2c0.3,0,.64,0,1-0.08l0.66-.07h0.32l0-.79H29.74Z"/>
    <path class="cls-2" d="M29.12,37.37c-0.39,0-.72.08-1,0.09l-1.9,0,0,0.79,1.89-.05c0.31,0,.66,0,1.07-0.09l0.62-.07h0.32l0-.79h-0.4Z"/>
    <path class="cls-2" d="M34.56,40.53l0.67,0.07c0.38,0,.72.08,1,0.08l0.89,0,1,0V39.94l-1,0-0.89,0c-0.27,0-.59,0-1-0.08l-0.68-.07H34.2l0,0.79h0.33Z"/>
    <path class="cls-2" d="M35.29,35l-0.65-.07-0.43,0,0,0.79h0.33l0.65,0.07c0.39,0,.74.08,1,0.09l1.9,0.05V35.11l-1.89-.05C36,35.05,35.67,35,35.29,35Z"/>
    <path class="cls-2" d="M35.31,42.22l-0.68-.07-0.43,0,0,0.79h0.33L35.23,43c0.39,0,.72.08,1,0.08l1.9,0,0-.79-1.89,0C36,42.3,35.68,42.26,35.31,42.22Z"/>
    <path class="cls-2" d="M24.43,50a35.47,35.47,0,0,0,7.5,4.64l0.3,0.13,0.3-.13A36.93,36.93,0,0,0,40,50.05c5-4,7.59-8.52,7.59-13.11v-21H16.83V36.58C16.83,41.36,19.46,46,24.43,50Zm7.1-5.36a2.06,2.06,0,0,0-.79-0.15c-0.91,0-1.58.06-2.3,0.12S27,44.79,26,44.81H24.86c0-1.21,0-9.93,0-11.17l1.69,0c0.58,0,1.21-.08,1.93-0.16l1.28-.13a5.27,5.27,0,0,1,1.45.05,1.4,1.4,0,0,1,.32.12V44.68Zm14.55-7.74c0,8.58-10.24,14.4-13.3,15.95V46.67a2,2,0,0,0,.34-0.32,0.61,0.61,0,0,1,.56-0.3,20.79,20.79,0,0,1,2.16.12c0.68,0.06,1.45.13,2.55,0.16s1.93,0,2,0l0.71,0V44.19h1.32V42.4H41.06V40.47h1.41v-1.8H41.06V36.31h1.32V34.52H41.06V32.14H37.9c-0.51,0-1.11-.08-1.8-0.15l-1.31-.13a6.52,6.52,0,0,0-1.89.08l-0.11,0V30h13.3C46.08,33.8,46.08,36.94,46.08,36.94Zm-6.53,7.87H38.42c-1,0-1.76-.09-2.45-0.15a23,23,0,0,0-2.3-.12,2.13,2.13,0,0,0-.89.18V33.56a1.23,1.23,0,0,1,.44-0.18,5.1,5.1,0,0,1,1.41-.05l1.3,0.13c0.73,0.08,1.35.14,1.92,0.16l1.69,0C39.55,34.88,39.56,43.6,39.56,44.81ZM18.33,17.42H46.08c0,0.74,0,6.18,0,11.13H18.33C18.33,23.64,18.33,18.17,18.33,17.42Zm0,12.61h13.2v1.89a6.56,6.56,0,0,0-1.92-.08L28.33,32c-0.7.07-1.3,0.14-1.81,0.15H23.35v2H21.88V36h1.48v2.36H21.88v1.8h1.48V42H21.88v1.79h1.48v2.42l0.71,0s0.88,0,2,0,1.87-.09,2.55-0.16A20.81,20.81,0,0,1,30.74,46a0.51,0.51,0,0,1,.49.28,1.89,1.89,0,0,0,.31.31v6.2c-3.21-1.63-13.2-7.39-13.2-16.25C18.33,36.58,18.33,33.62,18.33,30Z"/>
    <path class="cls-2" d="M30,18.16H21v0.75c0,2.33,0,5.14,0,5.28a2.64,2.64,0,0,0,1.4,1.94c1.06,0.71,2.63,1.63,2.7,1.67L25.43,28l0.37-.2c0.07,0,1.77-1,2.83-1.68A2.48,2.48,0,0,0,30,24.19s0-.16,0-5.28V18.16Zm-7.5,1.5h6c0,0.42,0,.87,0,1.31h-6V19.66Zm6,4.43h0v0.06a1.45,1.45,0,0,1-.66.73c-0.72.48-1.79,1.09-2.35,1.4-0.53-.32-1.53-0.92-2.25-1.4a1.49,1.49,0,0,1-.73-0.78c0-.09,0-0.75,0-1.62h6v0.26C28.47,23.47,28.47,24,28.47,24.09Z"/>
    <path class="cls-2" d="M35.29,37.39l-0.66-.07-0.44,0,0,0.79h0.33l0.65,0.07c0.39,0,.73.08,1,0.08l1.9,0,0-.79-1.89,0C36,37.47,35.67,37.43,35.29,37.39Z"/>
    <path class="cls-2" d="M43.88,18.12h-9v0.75c0,5.12,0,5.25,0,5.29a2.63,2.63,0,0,0,1.4,1.92c1.05,0.71,2.62,1.63,2.69,1.67L39.34,28l0.37-.2c0.07,0,1.77-1,2.84-1.68a2.47,2.47,0,0,0,1.33-1.94c0-.11,0-1.89,0-5.28V18.12Zm-1.5,5.94v0.05a1.44,1.44,0,0,1-.66.73c-0.72.49-1.79,1.09-2.35,1.4-0.53-.31-1.53-0.92-2.25-1.4a1.5,1.5,0,0,1-.74-0.78h0s0-.08,0-0.16h0l3-2.14,3,2c0,0.15,0,.25,0,0.28h0Zm-3.06-4.13-0.42.31-2.51,1.81V21.35c0-.57,0-1.16,0-1.72h6c0,0.77,0,1.61,0,2.35Z"/>
    <path class="cls-2" d="M7,30.1a4.25,4.25,0,0,0-.08-1H6.2a2.37,2.37,0,0,1,.12.95,1.42,1.42,0,0,1-1.64,1.35,1.44,1.44,0,0,1-1.48-1.53A1.73,1.73,0,0,1,3.49,29l-0.73-.11a2.82,2.82,0,0,0-.24,1,2.14,2.14,0,0,0,2.17,2.49A2.07,2.07,0,0,0,7,30.1Z"/>
    <path class="cls-2" d="M5.11,27a2.1,2.1,0,1,0,1.15-4,2,2,0,0,0-2.72,1.4A2,2,0,0,0,5.11,27ZM4.19,24.58A1.34,1.34,0,0,1,6,23.85,1.33,1.33,0,0,1,7.2,25.43a1.33,1.33,0,0,1-1.84.73A1.33,1.33,0,0,1,4.19,24.58Z"/>
    <path class="cls-2" d="M9.5,21.19l-1.59-.85L8,20.1a0.53,0.53,0,0,1,.68-0.31L10.15,20l0.45-.85-1.82-.19a0.64,0.64,0,0,0-.61.19h0a1,1,0,0,0-.47-1.25c-1.07-.57-1.55.42-2,1.23l-0.44.82,3.83,2ZM7.44,19.77L7.3,20l-1-.55,0.13-.25c0.2-.38.47-0.78,0.93-0.54S7.63,19.4,7.44,19.77Z"/>
    <polygon class="cls-2" points="12.06 17.09 9.56 15.01 9.57 15.01 13.12 15.82 13.78 15.01 10.44 12.24 9.92 12.87 12.42 14.95 12.41 14.96 8.87 14.14 8.2 14.95 11.54 17.72 12.06 17.09"/>
    <polygon class="cls-2" points="17.25 12 16.82 11.47 15.52 12.53 14.75 11.58 15.93 10.62 15.5 10.09 14.32 11.05 13.64 10.22 14.93 9.17 14.5 8.64 12.54 10.23 15.28 13.6 17.25 12"/>
    <polygon class="cls-2" points="21.13 9.65 20.79 9.05 19.34 9.87 17.55 6.68 16.8 7.11 18.93 10.88 21.13 9.65"/>
    <polygon class="cls-2" points="25.05 8.12 24.82 7.47 23.26 8.04 22.02 4.6 21.21 4.9 22.68 8.97 25.05 8.12"/>
    <path class="cls-2" d="M30.23,7.27a1.5,1.5,0,0,0,1.6-1.78L31.61,2.72l-0.86.07L31,5.29C31,6,30.83,6.53,30.18,6.58s-0.93-.41-1-1.15L29,2.94,28.12,3l0.23,2.76A1.5,1.5,0,0,0,30.23,7.27Z"/>
    <polygon class="cls-2" points="35.22 3.99 35.24 3.99 36.42 7.42 37.46 7.56 38.04 3.26 37.23 3.15 36.79 6.37 36.78 6.37 35.6 2.93 34.56 2.79 33.98 7.09 34.79 7.2 35.22 3.99"/>
    <rect class="cls-2" x="38.3" y="5.74" width="4.34" height="0.86" transform="translate(22.47 42.93) rotate(-72.58)"/>
    <polygon class="cls-2" points="47.3 6.79 46.54 6.4 44.03 8.95 44.02 8.95 44.58 5.41 43.76 5 43.11 9.54 44.05 10.01 47.3 6.79"/>
    <polygon class="cls-2" points="48.71 13.18 49.13 12.64 47.8 11.61 48.56 10.65 49.76 11.59 50.18 11.05 48.98 10.11 49.64 9.27 50.95 10.29 51.37 9.76 49.38 8.2 46.71 11.62 48.71 13.18"/>
    <path class="cls-2" d="M50.68,15.14L52,14l0.18,0.21a0.53,0.53,0,0,1,.06.74l-0.68,1.28,0.63,0.72L53,15.26a0.63,0.63,0,0,0,0-.64h0a1,1,0,0,0,1.34,0c0.91-.8.16-1.6-0.45-2.3l-0.61-.69-3.26,2.86Zm2.75-2.41,0.19,0.21c0.28,0.32.57,0.71,0.17,1.05s-0.77,0-1.05-.29l-0.19-.21Z"/>
    <path class="cls-2" d="M54.23,18.87a2.06,2.06,0,0,1-.26-1l-0.72.33a3.75,3.75,0,0,0,.42,1,1.36,1.36,0,0,0,1.95.71c1.25-.74,0-2.19.67-2.58a0.6,0.6,0,0,1,.86.28,2.22,2.22,0,0,1,.28.84l0.66-.3a3.25,3.25,0,0,0-.39-1,1.32,1.32,0,0,0-1.9-.61c-1.24.73,0,2.17-.7,2.59A0.68,0.68,0,0,1,54.23,18.87Z"/>
    <rect class="cls-2" x="55.31" y="21.46" width="4.34" height="0.86" transform="translate(-4.01 23.33) rotate(-22.19)"/>
    <polygon class="cls-2" points="56.53 25.84 56.73 26.68 60.28 25.8 60.57 27 61.24 26.83 60.45 23.61 59.78 23.78 60.08 24.97 56.53 25.84"/>
    <polygon class="cls-2" points="57.32 30.66 57.37 31.51 59.08 31.42 61.79 32.8 61.74 31.9 59.86 30.97 61.62 29.86 61.57 28.85 59.03 30.56 57.32 30.66"/>
    <polygon class="cls-2" points="5.91 40.98 6.56 40.78 6.16 39.38 7.18 39.08 7.61 40.56 8.27 40.37 7.6 38.06 3.43 39.26 3.67 40.1 5.5 39.57 5.91 40.98"/>
    <path class="cls-2" d="M9.64,43.38a2,2,0,0,0-2.93-.92,2,2,0,0,0-1.09,2.9,2,2,0,0,0,3,.91A2,2,0,0,0,9.64,43.38ZM8.17,45.46a1.33,1.33,0,0,1-1.95-.4,1.33,1.33,0,0,1,.88-1.78A1.34,1.34,0,0,1,9,43.69,1.33,1.33,0,0,1,8.17,45.46Z"/>
    <path class="cls-2" d="M11.51,51.28l2.17-1.72-0.54-.68-2,1.56C10.6,50.9,10.07,51,9.66,50.5s-0.18-1,.4-1.47l2-1.56-0.54-.68L9.31,48.52a1.51,1.51,0,0,0-.19,2.41A1.51,1.51,0,0,0,11.51,51.28Z"/>
    <polygon class="cls-2" points="17.15 52.68 15.1 55.19 15.09 55.18 15.87 51.63 15.04 50.95 12.29 54.3 12.94 54.83 14.99 52.32 15 52.33 14.23 55.89 15.05 56.56 17.8 53.2 17.15 52.68"/>
    <path class="cls-2" d="M20.5,54.8l-1.06-.53L17.5,58.15l1.06,0.53c1.18,0.6,2.43.72,3.2-.81S21.69,55.39,20.5,54.8ZM21,57.45a1.42,1.42,0,0,1-1.94.69l-0.43-.22,1.34-2.66,0.43,0.22A1.42,1.42,0,0,1,21,57.45Z"/>
    <polygon class="cls-2" points="23.34 60.69 25.82 61.35 26 60.69 24.36 60.25 24.67 59.08 26.16 59.47 26.34 58.81 24.85 58.42 25.13 57.38 26.75 57.82 26.93 57.16 24.46 56.5 23.34 60.69"/>
    <path class="cls-2" d="M30,57.57l-1.18-.07-0.25,4.33,1.18,0.07c1.32,0.07,2.52-.31,2.62-2S31.34,57.64,30,57.57Zm0,3.66-0.48,0,0.17-3,0.48,0A1.49,1.49,0,0,1,30,61.23Z"/>
    <path class="cls-2" d="M36.8,57.18l-0.74,4.6,0.88-.19,0.16-1,1.72-.37,0.57,0.9,0.94-.2L37.75,57Zm0.4,2.63,0.23-1.88h0l1,1.62Z"/>
    <rect class="cls-2" x="41.42" y="59.39" width="0.87" height="0.87" transform="translate(-17.93 17.91) rotate(-19.99)"/>
    <path class="cls-2" d="M43.43,54.89l-1,.56,2.07,3.81,1-.56c1.16-.63,2-1.58,1.16-3.1S44.6,54.25,43.43,54.89ZM45.32,58l-0.43.23-1.42-2.61,0.43-.23A1.49,1.49,0,0,1,45.32,58Z"/>
    <rect class="cls-2" x="48.09" y="55.93" width="0.87" height="0.87" transform="translate(-23.48 37.75) rotate(-34.78)"/>
    <polygon class="cls-2" points="49.71 50.32 49.52 51.93 50.23 52.03 50.33 51.09 52.69 53.48 53.3 52.87 50.26 49.78 49.71 50.32"/>
    <path class="cls-2" d="M55.78,47.93a1.21,1.21,0,0,0-1.41,0h0A1.14,1.14,0,0,0,54,46.72a1.22,1.22,0,0,0-1.7.55,1.17,1.17,0,0,0,.1,1.79,1.11,1.11,0,0,0,1.24,0h0a1.17,1.17,0,0,0,.4,1.28,1.29,1.29,0,0,0,1.91-.48A1.26,1.26,0,0,0,55.78,47.93Zm-2,.31a0.83,0.83,0,0,1-.93.16,0.57,0.57,0,0,1,0-.82,0.51,0.51,0,0,1,.76-0.1A0.75,0.75,0,0,1,53.8,48.24Zm1.59,1.25a0.63,0.63,0,0,1-.88.16,0.79,0.79,0,0,1-.25-0.87,0.86,0.86,0,0,1,1-.14A0.57,0.57,0,0,1,55.39,49.49Z"/>
    <path class="cls-2" d="M57.92,43.39a1.19,1.19,0,0,0-1.75.54,0.94,0.94,0,0,0,0,.94h0a1.18,1.18,0,0,1-.74-1.52,1.81,1.81,0,0,1,.49-0.6l-0.58-.42a2.72,2.72,0,0,0-.54.75c-0.63,1.25.36,2.17,1.42,2.69s1.92,0.66,2.46-.41A1.36,1.36,0,0,0,57.92,43.39Zm0.17,1.69a0.65,0.65,0,0,1-1,.2,0.68,0.68,0,0,1-.48-0.89,0.68,0.68,0,0,1,1-.17A0.66,0.66,0,0,1,58.09,45.08Z"/>
    <path class="cls-2" d="M59.6,38.69a1.29,1.29,0,0,0-1.75.93,2,2,0,0,0-.07.39l-0.88-.28,0.47-1.6-0.62-.18L56,40.33,58.26,41a2.52,2.52,0,0,1,.11-0.78,0.83,0.83,0,0,1,1-.74,0.81,0.81,0,0,1,.47,1.11,2.17,2.17,0,0,1-.46.78l0.74,0.24a4.66,4.66,0,0,0,.41-0.93A1.48,1.48,0,0,0,59.6,38.69Z"/>
  </g>
  <g>
    <polygon class="cls-2" points="52.73 64.84 52.22 63.56 51.75 63.56 51.75 65.31 52.06 65.31 52.06 63.89 52.07 63.89 52.61 65.31 52.83 65.31 53.37 63.89 53.38 63.89 53.38 65.31 53.69 65.31 53.69 63.56 53.22 63.56 52.73 64.84"/>
    <polygon class="cls-2" points="50.06 63.81 50.6 63.81 50.6 65.31 50.91 65.31 50.91 63.81 51.45 63.81 51.45 63.56 50.06 63.56 50.06 63.81"/>
  </g>
</svg>
