<svg id="Layer_1" data-name="Layer 1" xmlns="http://www.w3.org/2000/svg" viewBox="0 0 416.2 416.33"><defs><style>.cls-1{font-size:51.82px;}.cls-1,.cls-2,.cls-3,.cls-4{fill:#ae132a;}.cls-1,.cls-2,.cls-3{font-family:FreightSansProBold-Regular, FreightSans Pro;}.cls-2{font-size:51.82px;}.cls-3{font-size:51.82px;}.cls-4{fill-rule:evenodd;}</style></defs><g id="Layer_2" data-name="Layer 2"><text class="cls-1" transform="matrix(1.01, 0.02, -0.02, 1, 202.33, 53.17)">I</text><text class="cls-1" transform="translate(216.45 52.56) rotate(10.14) scale(1.01 1)">N</text><text class="cls-1" transform="translate(251.4 59.04) rotate(21.47) scale(1.01 1)">S</text><text class="cls-1" transform="matrix(0.86, 0.53, -0.52, 0.85, 276.87, 68.76)">T</text><text class="cls-1" transform="translate(302.42 85.01) rotate(39.47) scale(1.01 1)">I</text><text class="cls-1" transform="matrix(0.68, 0.74, -0.74, 0.68, 313.76, 93.52)">T</text><text class="cls-1" transform="matrix(0.52, 0.86, -0.85, 0.52, 334.26, 115.3)">U</text><text class="cls-1" transform="translate(351.65 143.98) rotate(70.22) scale(1.01 1)">T</text><text class="cls-1" transform="matrix(0.16, 0.99, -0.99, 0.16, 361.83, 172.17)">E</text><text class="cls-2" transform="matrix(0.2, 0.99, -0.98, 0.2, 12.04, 230.61)">O</text><text class="cls-2" transform="matrix(0.39, 0.93, -0.92, 0.39, 21.32, 272.19)">F</text><text class="cls-2" transform="matrix(0.5, 0.88, -0.87, 0.49, 33.84, 300.35)"> </text><text class="cls-2" transform="matrix(0.56, 0.84, -0.83, 0.55, 40.53, 311.99)"> </text><text class="cls-2" transform="translate(48.3 324.53) rotate(48.91) scale(1.01 1)">B</text><text class="cls-2" transform="matrix(0.76, 0.66, -0.66, 0.75, 72.14, 350.64)">I</text><text class="cls-2" transform="translate(85.83 363.37) rotate(32.12) scale(1.01 1)">O</text><text class="cls-2" transform="matrix(0.94, 0.36, -0.35, 0.94, 121.83, 385.12)">T</text><text class="cls-2" transform="translate(154.96 397.22) rotate(10.68) scale(1.01 1)">E</text><text class="cls-2" transform="translate(187.21 403.09) rotate(0.93) scale(1.01 1)">C</text><text class="cls-2" transform="matrix(0.99, -0.18, 0.18, 0.98, 223.19, 403.49)">H</text><text class="cls-2" transform="matrix(0.93, -0.38, 0.38, 0.92, 263.64, 395.75)">N</text><text class="cls-2" transform="translate(302.23 379.36) rotate(-34.86) scale(1.01 1)">O</text><text class="cls-2" transform="translate(336.48 354.39) rotate(-45.71) scale(1.01 1)">L</text><text class="cls-2" transform="matrix(0.56, -0.84, 0.83, 0.56, 356.95, 333.9)">O</text><text class="cls-2" transform="matrix(0.37, -0.94, 0.93, 0.37, 380.5, 297.86)">G</text><text class="cls-2" transform="translate(394.22 261.78) rotate(-79.7) scale(1.01 1)">Y</text><text class="cls-3" transform="matrix(0.16, -0.99, 0.99, 0.16, 45.5, 202.55)">C</text><text class="cls-3" transform="matrix(0.36, -0.94, 0.93, 0.36, 49.63, 173.37)">O</text><text class="cls-3" transform="matrix(0.55, -0.84, 0.84, 0.55, 62.92, 139.25)">R</text><text class="cls-3" transform="matrix(0.71, -0.71, 0.71, 0.71, 79.36, 113.36)">N</text><text class="cls-3" transform="matrix(0.84, -0.56, 0.55, 0.83, 104.66, 88.39)">E</text><text class="cls-3" transform="matrix(0.92, -0.41, 0.41, 0.91, 128.08, 72.75)">L</text><text class="cls-3" transform="matrix(0.97, -0.26, 0.26, 0.97, 151.66, 62.11)">L</text><text class="cls-3" transform="matrix(1, -0.14, 0.14, 0.99, 177.08, 55.79)"> </text></g><path class="cls-4" d="M198,200.74l-5.23.07-.23-16.58a2.62,2.62,0,0,1,5.23-.07l.23,16.58ZM267,223.92c-11.82,5.42-19.26,14.59-26.21,24.19-1.94-2.5-3.93-5-6-7.31a65.68,65.68,0,0,0-10.12-9.35,48.78,48.78,0,0,0-6.88-4.22c-13.21-6.63-30.89-6.39-43.91.59a48.2,48.2,0,0,0-6.77,4.4,66,66,0,0,0-9.86,9.62c-2,2.41-4,4.92-5.83,7.47-7.21-9.41-14.9-18.38-26.86-23.48-21.12-9-45,4.48-63.24,18,.9,2.35,1.86,4.68,2.87,7a142.79,142.79,0,0,1,23.57-14.91l.56,41.1a116.83,116.83,0,0,1-14.19-7.69A140.94,140.94,0,0,0,84,282.94c13.62,6.26,28.16,9.18,41.36,3.12,11.82-5.42,19.26-14.59,26.22-24.19,1.93,2.5,3.92,5,6,7.31a65.61,65.61,0,0,0,10.11,9.35,47.87,47.87,0,0,0,6.88,4.22c13.22,6.63,30.89,6.39,43.92-.58a48.79,48.79,0,0,0,6.76-4.41,66,66,0,0,0,9.86-9.62c2-2.41,4-4.92,5.83-7.47,7.21,9.41,14.9,18.38,26.86,23.48,12.58,5.37,26.14,2.75,38.91-3.1a142.4,142.4,0,0,0,9.41-13.43,109.31,109.31,0,0,1-11.52,6.47L304,233a139,139,0,0,1,22.81,13.46q1.41-3.49,2.64-7.06C311,226.66,287.4,214.55,267,223.92Zm.67,7.72.61,44.78c-9.56-5-16.24-13.46-22.77-22.09,6.3-8.8,12.74-17.44,22.16-22.69Zm-31.43,22.81c-4.74,6.6-9.65,13-15.92,17.88a39.45,39.45,0,0,1-5.67,3.69l-.58-42.54a39.21,39.21,0,0,1,5.77,3.53c6.4,4.69,11.48,11,16.4,17.44Zm38,24.39-.68-49.78a30.09,30.09,0,0,1,9.36-1.36l.71,52.25a29.93,29.93,0,0,1-9.39-1.11Zm15.25.46-.69-51.11a55.29,55.29,0,0,1,9.41,2.44l.62,46a54.08,54.08,0,0,1-9.34,2.69Zm-81.27-48.12.64,47.3a41.74,41.74,0,0,1-9.35,1.83l-.69-50.72a41.08,41.08,0,0,1,9.4,1.59Zm-15.28-1.51.7,50.72a41.43,41.43,0,0,1-9.4-1.58l-.65-47.3a41.31,41.31,0,0,1,9.35-1.84ZM177.68,234l.58,42.53a39.21,39.21,0,0,1-5.77-3.53c-6.4-4.69-11.48-11-16.4-17.44,4.74-6.6,9.65-13,15.92-17.88a39.07,39.07,0,0,1,5.67-3.68Zm-30.86,21.68c-6.3,8.8-12.73,17.44-22.16,22.69l-.61-44.77c9.57,5,16.24,13.45,22.77,22.08Zm-28.67-24.51.67,49.78a30.07,30.07,0,0,1-9.35,1.36L108.75,230a30,30,0,0,1,9.4,1.11Zm-15.26-.46.7,51.11a53.91,53.91,0,0,1-9.41-2.44l-.63-46a54.33,54.33,0,0,1,9.34-2.69ZM120,296.49l0-1.06a3.24,3.24,0,0,1,6.32-.07l0,1.6-.66,20.64-.12,3.64a146.9,146.9,0,0,0,142.92-2.74l-.22-3.65-1.17-19.76-.1-1.62a3.23,3.23,0,0,1,6.32-.07l.07,1,1,16.55.22,3.76a145.77,145.77,0,0,0,24.43-20,143.76,143.76,0,0,0-2.78-204.46A146.55,146.55,0,0,0,90.14,93a143.79,143.79,0,0,0,2.79,204.47,146.25,146.25,0,0,0,26.43,20.25l.12-3.74.56-17.49Zm5.25,33.25A154.75,154.75,0,0,0,269,327.05q3.11-1.71,6.12-3.56a153.63,153.63,0,0,0,29.44-23.44,151.38,151.38,0,0,0-2.93-215.3,154.3,154.3,0,0,0-217,2.91A151.38,151.38,0,0,0,87.54,303a153.8,153.8,0,0,0,31.54,23.47c2,1.15,4.11,2.26,6.21,3.31Zm143.24-117-3.47-58.39-.06-1-.64-.78-66.67-81-4.1-5-4,5.1-64.43,82.78-.62.8,0,1-1.88,58.59,0,1.4a3.24,3.24,0,0,0,6.32.16l0-1.32,1.7-53,128.42-1.72,3.15,53.16.06.95a3.23,3.23,0,0,0,6.32,0l-.09-1.66ZM257.43,154l-125.27,1.68,61.57-79.1L257.43,154Zm-54.54,46.66-.22-16.57a2.62,2.62,0,0,1,5.23-.07l.22,16.57-5.23.07Zm9.38-16.7a7,7,0,0,0-12.1-4.62,7,7,0,0,0-10.08.13A7.05,7.05,0,0,0,185,177.4a7,7,0,0,0-6.89,7l.29,20.91,34.14-.46L212.27,184Zm-24.55.33.23,16.57-5.23.07-.23-16.57a2.62,2.62,0,0,1,5.23-.07Z" transform="translate(11.52 18.26)"/></svg>