<?xml version="1.0" encoding="utf-8"?>
<!-- Generator: Adobe Illustrator 26.0.3, SVG Export Plug-In . SVG Version: 6.00 Build 0)  -->
<svg version="1.1" id="Layer_1" xmlns="http://www.w3.org/2000/svg" xmlns:xlink="http://www.w3.org/1999/xlink" x="0px" y="0px"
	 viewBox="0 0 178.91 178.04" style="enable-background:new 0 0 178.91 178.04;" xml:space="preserve">
<style type="text/css">
	.st0{fill:#0065B7;}
	.st1{clip-path:url(#SVGID_00000074400325647083714260000016829919827744639106_);}
	.st2{fill:#FFFFFF;}
	.st3{font-family:'Courier-Bold';}
	.st4{font-size:24px;}
	.st5{fill:none;stroke:#000000;stroke-miterlimit:10;}
	.st6{clip-path:url(#SVGID_00000120522336627473581660000014904128928730265497_);}
	.st7{fill:#FFFFFF;stroke:#000000;stroke-width:0.75;stroke-miterlimit:10;}
	
		.st8{clip-path:url(#SVGID_00000051343213650364888050000011290158007298121148_);fill:#FFFFFF;stroke:#000000;stroke-width:0.75;stroke-miterlimit:10;}
	
		.st9{clip-path:url(#SVGID_00000132055102508954786630000010313295985489529775_);fill:#FFFFFF;stroke:#000000;stroke-width:0.75;stroke-miterlimit:10;}
	
		.st10{clip-path:url(#SVGID_00000032626263791302817490000014713683013533734323_);fill:#FFFFFF;stroke:#000000;stroke-width:0.75;stroke-miterlimit:10;}
	
		.st11{clip-path:url(#SVGID_00000118367233255189611160000001598892447154080417_);fill:#FFFFFF;stroke:#000000;stroke-width:0.75;stroke-miterlimit:10;}
	
		.st12{clip-path:url(#SVGID_00000113334684505696277200000013618251736895739048_);fill:#FFFFFF;stroke:#000000;stroke-width:0.75;stroke-miterlimit:10;}
	
		.st13{clip-path:url(#SVGID_00000045615044399716549820000004203076811588480922_);fill:#FFFFFF;stroke:#000000;stroke-width:0.75;stroke-miterlimit:10;}
	.st14{fill:#FFFFFF;stroke:#000000;stroke-miterlimit:10;}
	.st15{fill:#FFFFFF;stroke:#000000;stroke-width:0.5;stroke-miterlimit:10;}
	.st16{fill:none;stroke:#000000;stroke-width:0.5;stroke-miterlimit:10;}
</style>
<polygon class="st0" points="89.27,26.24 45.97,1.24 2.67,26.24 2.67,76.24 45.97,101.24 89.27,76.24 "/>
<polygon class="st0" points="175.95,26.24 132.65,1.24 89.35,26.24 89.35,76.24 132.65,101.24 175.95,76.24 "/>
<polygon class="st0" points="132.55,101.04 89.24,76.04 45.94,101.04 45.94,151.04 89.24,176.04 132.55,151.04 "/>
<g>
	<g>
		<defs>
			<polygon id="SVGID_1_" points="89.27,26.24 45.97,1.24 2.67,26.24 2.67,76.24 45.97,101.24 89.27,76.24 			"/>
		</defs>
		<clipPath id="SVGID_00000000219124271839238560000008918000748063102090_">
			<use xlink:href="#SVGID_1_"  style="overflow:visible;"/>
		</clipPath>
		<g style="clip-path:url(#SVGID_00000000219124271839238560000008918000748063102090_);">
			<text transform="matrix(1 0 0 1 2.7551 27.0823)" class="st2 st3 st4">101011</text>
			<text transform="matrix(1 0 0 1 2.7551 55.8823)" class="st2 st3 st4">001101</text>
			<text transform="matrix(1 0 0 1 2.7551 84.6823)" class="st2 st3 st4">110100</text>
		</g>
	</g>
</g>
<polygon class="st5" points="89.27,26.24 45.97,1.24 2.67,26.24 2.67,76.24 45.97,101.24 89.27,76.24 "/>
<g>
	<g>
		<defs>
			<polygon id="SVGID_00000114795415016856357420000000732894177484227744_" points="175.95,26.24 132.65,1.24 89.35,26.24 
				89.35,76.24 132.65,101.24 175.95,76.24 			"/>
		</defs>
		<clipPath id="SVGID_00000073000095078572230010000012099788360089648568_">
			<use xlink:href="#SVGID_00000114795415016856357420000000732894177484227744_"  style="overflow:visible;"/>
		</clipPath>
		<g style="clip-path:url(#SVGID_00000073000095078572230010000012099788360089648568_);">
			<path class="st7" d="M129.93,53.59c-0.62-3.69-0.99-7.26-0.65-10.49c0.78-7.42,4.28-10.71,4.14-10.81
				c-0.14-0.1-4.78,3.47-6.93,11.24c0,0-1.18,5.5-0.38,12.48c0.48,4.2,0.78,4.95,1.77,11.75c0.95,6.5,0.73,7.76,0.59,8.99
				c-0.51,4.37-1.99,7.31-1.66,7.53c0.34,0.23,1.82-2.72,3.33-6.11c0.28-0.64,1.18-2.71,1.67-6.6c0.13-1.04,0.37-2.52-0.17-6.71
				C131.02,59.96,130.65,57.87,129.93,53.59z"/>
			<path class="st7" d="M166.2,3.65c-0.62-3.69-0.99-7.26-0.65-10.49c0.78-7.42,4.28-10.71,4.14-10.81
				c-0.14-0.1-4.78,3.47-6.93,11.24c0,0-1.18,5.5-0.38,12.48c0.48,4.2,0.78,4.95,1.77,11.75c0.95,6.5,0.73,7.76,0.59,8.99
				c-0.51,4.37-1.99,7.31-1.66,7.53c0.34,0.23,1.82-2.72,3.33-6.11c0.28-0.64,1.18-2.71,1.67-6.6c0.13-1.04,0.37-2.52-0.17-6.71
				C167.3,10.02,166.92,7.93,166.2,3.65z"/>
			<g>
				<path class="st7" d="M114.01,75.5c-0.62-3.69-0.99-7.26-0.65-10.49c0.78-7.42,4.28-10.71,4.14-10.81
					c-0.14-0.1-4.78,3.47-6.93,11.24c0,0-1.18,5.5-0.38,12.48c0.48,4.2,0.78,4.95,1.77,11.75c0.95,6.5,0.73,7.76,0.59,8.99
					c-0.51,4.37-1.99,7.31-1.66,7.53c0.34,0.23,1.82-2.72,3.33-6.11c0.28-0.64,1.18-2.71,1.67-6.6c0.13-1.04,0.37-2.52-0.17-6.71
					C115.11,81.87,114.73,79.78,114.01,75.5z"/>
				<path class="st7" d="M135.12,46.44c-3.7,0.55-7.21,1.31-10.17,2.63c-6.81,3.04-8.87,7.38-9,7.28c-0.14-0.1,1.82-5.62,8.55-10.07
					c0,0,4.86-2.82,11.75-4.22c4.15-0.84,4.95-0.79,11.72-1.95c6.47-1.11,7.61-1.71,8.73-2.22c4-1.84,6.34-4.16,6.65-3.91
					c0.32,0.26-2.02,2.57-4.78,5.05c-0.52,0.47-2.21,1.96-5.76,3.63c-0.94,0.44-2.28,1.13-6.44,1.92
					C141.52,45.51,139.41,45.8,135.12,46.44z"/>
			</g>
			<path class="st7" d="M151.04,24.53c-3.7,0.55-7.21,1.31-10.17,2.63c-6.81,3.04-8.87,7.38-9,7.28c-0.14-0.1,1.82-5.62,8.55-10.07
				c0,0,4.86-2.82,11.75-4.22c4.15-0.84,4.95-0.79,11.72-1.95c6.47-1.11,7.61-1.71,8.73-2.22c4-1.84,6.34-4.16,6.65-3.91
				c0.32,0.26-2.02,2.57-4.78,5.05c-0.52,0.47-2.21,1.96-5.76,3.63c-0.94,0.44-2.28,1.13-6.44,1.92
				C157.43,23.6,155.33,23.89,151.04,24.53z"/>
			<path class="st7" d="M98.59,96.73c-3.7,0.55-7.21,1.31-10.17,2.63c-6.81,3.04-8.87,7.38-9,7.28c-0.14-0.1,1.82-5.62,8.55-10.07
				c0,0,4.86-2.82,11.75-4.22c4.15-0.84,4.95-0.79,11.72-1.95c6.47-1.11,7.61-1.71,8.73-2.22c4-1.84,6.34-4.16,6.65-3.91
				c0.32,0.26-2.02,2.57-4.78,5.05c-0.52,0.47-2.21,1.96-5.76,3.63c-0.94,0.44-2.28,1.13-6.44,1.92
				C104.99,95.8,102.89,96.09,98.59,96.73z"/>
		</g>
	</g>
	<g>
		<defs>
			<polygon id="SVGID_00000022539762078261518150000011599243593278119302_" points="175.95,26.24 132.65,1.24 89.35,26.24 
				89.35,76.24 132.65,101.24 175.95,76.24 			"/>
		</defs>
		<clipPath id="SVGID_00000062175082744638936520000012668991417157037974_">
			<use xlink:href="#SVGID_00000022539762078261518150000011599243593278119302_"  style="overflow:visible;"/>
		</clipPath>
		
			<path style="clip-path:url(#SVGID_00000062175082744638936520000012668991417157037974_);fill:#FFFFFF;stroke:#000000;stroke-width:0.75;stroke-miterlimit:10;" d="
			M125.99,80.57l0.13-0.54c0.14-0.59-0.23-1.19-0.82-1.33l-6.85-1.64c-0.59-0.14-1.19,0.23-1.33,0.82l-0.13,0.54
			c-0.14,0.59,0.23,1.19,0.82,1.33l6.85,1.64C125.25,81.53,125.85,81.16,125.99,80.57z"/>
	</g>
	<g>
		<defs>
			<polygon id="SVGID_00000163071109781495274150000009985324540771449522_" points="175.95,26.24 132.65,1.24 89.35,26.24 
				89.35,76.24 132.65,101.24 175.95,76.24 			"/>
		</defs>
		<clipPath id="SVGID_00000132806516213189966270000013071365630777971645_">
			<use xlink:href="#SVGID_00000163071109781495274150000009985324540771449522_"  style="overflow:visible;"/>
		</clipPath>
		
			<path style="clip-path:url(#SVGID_00000132806516213189966270000013071365630777971645_);fill:#FFFFFF;stroke:#000000;stroke-width:0.75;stroke-miterlimit:10;" d="
			M125.2,72.67l0.13-0.54c0.14-0.59-0.23-1.19-0.82-1.33l-6.85-1.64c-0.59-0.14-1.19,0.23-1.33,0.82l-0.13,0.54
			c-0.14,0.59,0.23,1.19,0.82,1.33l6.85,1.64C124.47,73.63,125.06,73.26,125.2,72.67z"/>
	</g>
	<g>
		<defs>
			<polygon id="SVGID_00000121995409058792061000000017072045200591147699_" points="175.95,26.24 132.65,1.24 89.35,26.24 
				89.35,76.24 132.65,101.24 175.95,76.24 			"/>
		</defs>
		<clipPath id="SVGID_00000106848239931207016960000017874551371719163818_">
			<use xlink:href="#SVGID_00000121995409058792061000000017072045200591147699_"  style="overflow:visible;"/>
		</clipPath>
		
			<path style="clip-path:url(#SVGID_00000106848239931207016960000017874551371719163818_);fill:#FFFFFF;stroke:#000000;stroke-width:0.75;stroke-miterlimit:10;" d="
			M124.36,64.73l0.13-0.54c0.14-0.59-0.23-1.19-0.82-1.33l-6.85-1.64c-0.59-0.14-1.19,0.23-1.33,0.82l-0.13,0.54
			c-0.14,0.59,0.23,1.19,0.82,1.33l6.85,1.64C123.62,65.69,124.21,65.32,124.36,64.73z"/>
	</g>
	<g>
		<defs>
			<polygon id="SVGID_00000116228582833596285770000015983746101178011300_" points="175.95,26.24 132.65,1.24 89.35,26.24 
				89.35,76.24 132.65,101.24 175.95,76.24 			"/>
		</defs>
		<clipPath id="SVGID_00000049920389941890642900000017675976377947434172_">
			<use xlink:href="#SVGID_00000116228582833596285770000015983746101178011300_"  style="overflow:visible;"/>
		</clipPath>
		
			<path style="clip-path:url(#SVGID_00000049920389941890642900000017675976377947434172_);fill:#FFFFFF;stroke:#000000;stroke-width:0.75;stroke-miterlimit:10;" d="
			M158.25,34.92l-0.47,0.29c-0.52,0.32-1.2,0.15-1.51-0.36l-3.67-6c-0.32-0.52-0.15-1.2,0.36-1.52l0.47-0.29
			c0.52-0.32,1.2-0.15,1.51,0.36l3.67,6C158.93,33.92,158.77,34.6,158.25,34.92z"/>
	</g>
	<g>
		<defs>
			<polygon id="SVGID_00000022553929304260862510000008009150265878271117_" points="175.95,26.24 132.65,1.24 89.35,26.24 
				89.35,76.24 132.65,101.24 175.95,76.24 			"/>
		</defs>
		<clipPath id="SVGID_00000079461887326595267320000006445356899280245426_">
			<use xlink:href="#SVGID_00000022553929304260862510000008009150265878271117_"  style="overflow:visible;"/>
		</clipPath>
		
			<path style="clip-path:url(#SVGID_00000079461887326595267320000006445356899280245426_);fill:#FFFFFF;stroke:#000000;stroke-width:0.75;stroke-miterlimit:10;" d="
			M150.5,36.61l-0.47,0.29c-0.52,0.32-1.2,0.15-1.52-0.36l-3.67-6c-0.32-0.52-0.15-1.2,0.36-1.52l0.47-0.29
			c0.52-0.32,1.2-0.15,1.52,0.36l3.67,6C151.18,35.61,151.02,36.29,150.5,36.61z"/>
	</g>
	<g>
		<defs>
			<polygon id="SVGID_00000168098511013302310080000007351020726965134472_" points="175.95,26.24 132.65,1.24 89.35,26.24 
				89.35,76.24 132.65,101.24 175.95,76.24 			"/>
		</defs>
		<clipPath id="SVGID_00000004536335724274782980000009046983765873967003_">
			<use xlink:href="#SVGID_00000168098511013302310080000007351020726965134472_"  style="overflow:visible;"/>
		</clipPath>
		
			<path style="clip-path:url(#SVGID_00000004536335724274782980000009046983765873967003_);fill:#FFFFFF;stroke:#000000;stroke-width:0.75;stroke-miterlimit:10;" d="
			M142.69,38.26l-0.47,0.29c-0.52,0.32-1.2,0.15-1.52-0.36l-3.67-6c-0.32-0.52-0.15-1.2,0.36-1.52l0.47-0.29
			c0.52-0.32,1.2-0.15,1.51,0.36l3.67,6C143.37,37.26,143.2,37.94,142.69,38.26z"/>
	</g>
</g>
<polygon class="st5" points="175.95,26.24 132.65,1.24 89.35,26.24 89.35,76.24 132.65,101.24 175.95,76.24 "/>
<g>
	<circle class="st14" cx="89.24" cy="136.99" r="8.13"/>
	<circle class="st14" cx="89.24" cy="112.44" r="4.94"/>
	<circle class="st14" cx="66.98" cy="152.14" r="2.62"/>
	<circle class="st14" cx="111.51" cy="152.14" r="2.62"/>
	<line class="st5" x1="71.11" y1="149.52" x2="80.61" y2="142.58"/>
	<line class="st5" x1="107.38" y1="149.52" x2="97.88" y2="142.58"/>
	<line class="st5" x1="87.24" y1="119.61" x2="87.24" y2="126.32"/>
	<line class="st5" x1="91.25" y1="119.61" x2="91.25" y2="126.32"/>
</g>
<g>
	<circle class="st15" cx="117.59" cy="109.55" r="2.85"/>
	<circle class="st15" cx="117.59" cy="100.96" r="1.73"/>
	<circle class="st15" cx="109.8" cy="114.85" r="0.92"/>
	<circle class="st15" cx="125.39" cy="114.85" r="0.92"/>
	<line class="st16" x1="111.25" y1="113.94" x2="114.57" y2="111.51"/>
	<line class="st16" x1="123.94" y1="113.94" x2="120.62" y2="111.51"/>
	<line class="st16" x1="116.89" y1="103.47" x2="116.89" y2="105.82"/>
	<line class="st16" x1="118.3" y1="103.47" x2="118.3" y2="105.82"/>
</g>
<g>
	<circle class="st15" cx="62.85" cy="109.55" r="2.85"/>
	<circle class="st15" cx="62.85" cy="100.96" r="1.73"/>
	<circle class="st15" cx="55.06" cy="114.85" r="0.92"/>
	<circle class="st15" cx="70.65" cy="114.85" r="0.92"/>
	<line class="st16" x1="56.51" y1="113.94" x2="59.83" y2="111.51"/>
	<line class="st16" x1="69.2" y1="113.94" x2="65.87" y2="111.51"/>
	<line class="st16" x1="62.15" y1="103.47" x2="62.15" y2="105.82"/>
	<line class="st16" x1="63.56" y1="103.47" x2="63.56" y2="105.82"/>
</g>
<polygon class="st5" points="132.55,101.04 89.24,76.04 45.94,101.04 45.94,151.04 89.24,176.04 132.55,151.04 "/>
</svg>
